<svg width="186" height="72" viewBox="0 0 186 72" fill="none" xmlns="http://www.w3.org/2000/svg">
<path d="M156.268 44.7548V12.4238H164.463V25.1277H177.305V12.4238H185.5V44.7548H177.305V31.7373H164.463V44.7548H156.268Z" fill="white"/>
<path d="M135.744 44.7548V19.0334H126.856V12.4238H152.806V19.0334H143.94V44.7548H135.744Z" fill="white"/>
<path d="M111.424 45.3373C108.938 45.3373 106.772 44.9116 104.926 44.0602C103.079 43.1939 101.628 42.0288 100.571 40.565C99.5137 39.1012 98.9256 37.4506 98.8065 35.6134L98.7842 35.2549H106.243L106.288 35.4117C106.466 36.0839 106.787 36.6888 107.248 37.2266C107.725 37.7643 108.313 38.1975 109.012 38.5261C109.727 38.8398 110.531 38.9966 111.424 38.9966C112.451 38.9966 113.36 38.7875 114.149 38.3692C114.938 37.9361 115.556 37.3386 116.002 36.5768C116.449 35.815 116.672 34.9412 116.672 33.9554V33.9106C116.672 32.9247 116.449 32.0584 116.002 31.3116C115.556 30.5498 114.938 29.9598 114.149 29.5415C113.36 29.1233 112.451 28.9142 111.424 28.9142C110.754 28.9142 110.129 29.0113 109.548 29.2055C108.968 29.3847 108.447 29.6386 107.985 29.9672C107.643 30.2062 107.337 30.4751 107.069 30.7738C106.816 31.0726 106.6 31.3862 106.422 31.7149H99.3202L100.705 12.4238H122.389V18.7645H107.159L106.533 26.9201H106.69C107.315 25.8297 108.253 24.9634 109.504 24.3211C110.769 23.6639 112.243 23.3352 113.925 23.3352C115.965 23.3352 117.767 23.7833 119.33 24.6796C120.908 25.5758 122.144 26.8081 123.037 28.3765C123.945 29.9448 124.399 31.7373 124.399 33.7537V33.7985C124.399 36.0988 123.856 38.1153 122.769 39.848C121.682 41.5807 120.164 42.9325 118.213 43.9034C116.263 44.8593 114 45.3373 111.424 45.3373Z" fill="white"/>
<path d="M83.4643 44.7548V19.6608H83.2857L75.2461 25.0605V18.0252L83.442 12.4238H91.6156V44.7548H83.4643Z" fill="white"/>
<path d="M179.412 62.1811C178.195 62.1811 177.14 61.9263 176.246 61.4165C175.353 60.9068 174.664 60.1842 174.178 59.2488C173.692 58.3078 173.449 57.1931 173.449 55.9048V55.888C173.449 54.5997 173.692 53.4878 174.178 52.5524C174.669 51.617 175.361 50.8944 176.255 50.3847C177.148 49.875 178.2 49.6201 179.412 49.6201C180.64 49.6201 181.701 49.875 182.594 50.3847C183.488 50.8944 184.174 51.617 184.654 52.5524C185.14 53.4878 185.383 54.5997 185.383 55.888V55.9048C185.383 57.1931 185.14 58.3078 184.654 59.2488C184.174 60.1842 183.488 60.9068 182.594 61.4165C181.707 61.9263 180.646 62.1811 179.412 62.1811ZM179.412 59.6269C180.004 59.6269 180.509 59.4757 180.928 59.1732C181.352 58.8651 181.679 58.4338 181.908 57.8793C182.136 57.3192 182.251 56.661 182.251 55.9048V55.888C182.251 55.1262 182.134 54.4681 181.899 53.9135C181.67 53.359 181.344 52.9305 180.919 52.628C180.495 52.3256 179.993 52.1743 179.412 52.1743C178.848 52.1743 178.351 52.3256 177.921 52.628C177.497 52.9249 177.168 53.3506 176.933 53.9051C176.704 54.4597 176.59 55.1206 176.59 55.888V55.9048C176.59 56.6666 176.704 57.3276 176.933 57.8877C177.168 58.4422 177.497 58.8707 177.921 59.1732C178.346 59.4757 178.842 59.6269 179.412 59.6269Z" fill="white"/>
<path d="M168.877 61.963V49.8389H171.95V61.963H168.877Z" fill="white"/>
<path d="M156.667 61.963V49.8389H161.582C162.794 49.8389 163.832 50.0685 164.698 50.5278C165.563 50.9871 166.225 51.6621 166.682 52.5527C167.14 53.4377 167.369 54.5244 167.369 55.8127V55.8295C167.369 57.1178 167.14 58.2213 166.682 59.1399C166.225 60.0529 165.563 60.7531 164.698 61.2404C163.838 61.7221 162.799 61.963 161.582 61.963H156.667ZM159.74 59.476H161.172C161.836 59.476 162.398 59.3415 162.855 59.0727C163.313 58.7982 163.656 58.3921 163.885 57.8544C164.12 57.3167 164.237 56.6445 164.237 55.8379V55.8211C164.237 55.0649 164.117 54.4264 163.877 53.9054C163.637 53.3845 163.285 52.9924 162.822 52.7292C162.364 52.4603 161.814 52.3259 161.172 52.3259H159.74V59.476Z" fill="white"/>
<path d="M149.623 62.1814C148.579 62.1814 147.667 61.9938 146.885 61.6185C146.103 61.2432 145.498 60.7167 145.068 60.0389C144.638 59.3611 144.423 58.5686 144.423 57.6611V49.8389H147.496V57.3671C147.496 58.0728 147.681 58.6274 148.049 59.0307C148.418 59.4284 148.945 59.6272 149.632 59.6272C150.319 59.6272 150.843 59.4284 151.206 59.0307C151.575 58.6274 151.759 58.0728 151.759 57.3671V49.8389H154.832V57.6611C154.832 58.563 154.618 59.3555 154.188 60.0389C153.763 60.7167 153.16 61.2432 152.379 61.6185C151.603 61.9938 150.684 62.1814 149.623 62.1814Z" fill="white"/>
<path d="M136.727 61.963V52.3175H133.394V49.8389H143.125V52.3175H139.8V61.963H136.727Z" fill="white"/>
<path d="M127.749 62.1811C126.744 62.1811 125.87 62.0383 125.128 61.7526C124.391 61.4614 123.813 61.0441 123.394 60.5007C122.981 59.9574 122.75 59.2992 122.699 58.5263L122.691 58.375H125.547L125.563 58.459C125.619 58.7223 125.748 58.952 125.949 59.148C126.155 59.3384 126.418 59.4897 126.736 59.6017C127.054 59.7081 127.409 59.7613 127.799 59.7613C128.207 59.7613 128.556 59.7081 128.846 59.6017C129.142 59.4897 129.371 59.3384 129.533 59.148C129.695 58.9576 129.776 58.7363 129.776 58.4842V58.4758C129.776 58.1342 129.628 57.8709 129.332 57.686C129.036 57.4956 128.534 57.3332 127.825 57.1987L126.585 56.9551C125.39 56.731 124.48 56.3277 123.855 55.7452C123.235 55.157 122.925 54.3981 122.925 53.4682V53.4598C122.925 52.6813 123.132 52.0063 123.545 51.435C123.958 50.858 124.525 50.4127 125.245 50.099C125.971 49.7798 126.794 49.6201 127.716 49.6201C128.726 49.6201 129.586 49.7714 130.295 50.0738C131.004 50.3707 131.551 50.7908 131.936 51.3341C132.327 51.8775 132.539 52.516 132.573 53.2498L132.581 53.4262H129.726L129.717 53.3338C129.684 53.0649 129.58 52.8353 129.407 52.6448C129.234 52.4544 129.005 52.306 128.721 52.1995C128.436 52.0931 128.109 52.0399 127.741 52.0399C127.367 52.0399 127.048 52.0931 126.786 52.1995C126.524 52.306 126.323 52.4516 126.183 52.6364C126.049 52.8157 125.982 53.0201 125.982 53.2498V53.2582C125.982 53.5831 126.13 53.8407 126.426 54.0312C126.722 54.2216 127.194 54.3785 127.841 54.5017L129.081 54.7369C130.365 54.9834 131.311 55.3811 131.92 55.93C132.528 56.479 132.833 57.2407 132.833 58.2154V58.2238C132.833 59.0304 132.632 59.7305 132.23 60.3243C131.828 60.918 131.247 61.3773 130.488 61.7022C129.728 62.0215 128.816 62.1811 127.749 62.1811Z" fill="white"/>
<path d="M117.741 62.122C117.3 62.122 116.926 61.9708 116.619 61.6683C116.318 61.3603 116.167 60.985 116.167 60.5425C116.167 60.1 116.318 59.7275 116.619 59.425C116.926 59.1169 117.3 58.9629 117.741 58.9629C118.177 58.9629 118.545 59.1169 118.847 59.425C119.154 59.7275 119.307 60.1 119.307 60.5425C119.307 60.985 119.154 61.3603 118.847 61.6683C118.545 61.9708 118.177 62.122 117.741 62.122Z" fill="white"/>
<path d="M108.622 61.963L104.794 49.8389H108.245L110.556 58.9466H110.615L112.926 49.8389H116.376L112.549 61.963H108.622Z" fill="white"/>
<path d="M95.4482 61.963V49.8389H103.731V52.3175H98.5217V54.712H103.421V57.031H98.5217V59.4844H103.731V61.963H95.4482Z" fill="white"/>
<path d="M83.2383 61.963V49.8389H88.1542C89.3657 49.8389 90.4041 50.0685 91.2695 50.5278C92.1349 50.9871 92.7965 51.6621 93.2543 52.5527C93.7121 53.4377 93.941 54.5244 93.941 55.8127V55.8295C93.941 57.1178 93.7121 58.2213 93.2543 59.1399C92.7965 60.0529 92.1349 60.7531 91.2695 61.2404C90.4097 61.7221 89.3713 61.963 88.1542 61.963H83.2383ZM86.3118 59.476H87.7438C88.4082 59.476 88.9693 59.3415 89.4271 59.0727C89.8849 58.7982 90.2283 58.3921 90.4572 57.8544C90.6917 57.3167 90.8089 56.6445 90.8089 55.8379V55.8211C90.8089 55.0649 90.6889 54.4264 90.4488 53.9054C90.2087 53.3845 89.857 52.9924 89.3936 52.7292C88.9358 52.4603 88.3859 52.3259 87.7438 52.3259H86.3118V59.476Z" fill="white"/>
<path fill-rule="evenodd" clip-rule="evenodd" d="M35.9252 72.0001C47.4496 72.0001 57.0147 66.4183 63.4841 57.8713C63.7338 55.1586 63.312 53.5156 62.5877 52.3503C61.8419 51.1504 60.6584 50.2582 58.9549 49.2616C58.4253 48.9517 57.8542 48.6376 57.2503 48.3055C54.0249 46.5316 49.8628 44.2425 46.065 39.3225C43.8743 36.4844 42.6534 34.1036 42.4332 32.0775C42.3192 31.0279 42.472 30.0545 42.9131 29.1907C43.35 28.3348 44.0203 27.683 44.7908 27.1868C46.286 26.2237 48.3214 25.7441 50.4027 25.4635C52.5185 25.1782 54.889 25.0756 57.16 24.9863C63.7466 24.7273 66.8712 21.8929 67.6717 20.6859C66.1959 17.7057 64.3153 14.9629 62.102 12.5298C59.4694 14.1199 55.4675 16.0133 51.3437 16.9006C46.9892 17.8376 42.0589 17.735 38.6703 14.3363C35.5027 11.1593 34.727 7.85536 35.2311 4.97551C35.5011 3.43289 36.1276 2.06779 36.867 0.951766C36.5541 0.943574 36.2401 0.939453 35.9252 0.939453C34.5395 0.939453 33.1725 1.01924 31.8283 1.17449C30.1779 6.84329 25.68 11.9225 20.3754 15.4995C15.3405 18.8947 9.36313 21.0833 3.98798 21.077C1.75259 25.7341 0.5 30.9552 0.5 36.4698C0.5 36.9564 0.509756 37.4408 0.529081 37.9227C1.2181 37.3995 2.00953 36.928 2.86037 36.6275C3.77546 36.3043 4.82955 36.1552 5.91128 36.4318C7.01146 36.7131 7.99234 37.3973 8.80166 38.4796C9.69402 39.6729 10.0379 41.2614 10.1278 42.8378C10.2195 44.4463 10.0563 46.2358 9.76665 47.9993C9.19564 51.4751 8.09907 55.0476 7.24535 57.3303C10.4756 61.79 14.7146 65.467 19.6263 68.0244C19.8729 65.7927 20.4172 63.1799 21.4243 60.9283C22.1199 59.373 23.0807 57.8897 24.4124 56.8514C25.7845 55.7816 27.4896 55.2355 29.4945 55.5036C31.5479 55.7782 33.0522 56.8567 34.0719 58.3572C35.0596 59.8104 35.5759 61.6261 35.8227 63.4492C36.2093 66.3051 35.9712 69.4656 35.5527 71.9981C35.6767 71.9994 35.8009 72.0001 35.9252 72.0001ZM50.7432 14.0934C54.1886 13.352 57.6046 11.8108 60.0218 10.4253C54.7147 5.48365 47.8949 2.15386 40.3364 1.21223C39.3951 2.14197 38.3661 3.66933 38.0506 5.47194C37.7197 7.36236 38.1368 9.7409 40.6945 12.3061C43.0312 14.6498 46.6888 14.9658 50.7432 14.0934ZM5.57389 18.1367C10.5711 9.83215 18.8608 3.74492 28.6295 1.69374C26.9445 6.01728 23.2855 10.0774 18.7782 13.1168C14.5906 15.9407 9.84132 17.7677 5.57389 18.1367ZM5.26923 54.2868C3.03324 50.425 1.50184 46.102 0.851547 41.4947L0.881005 41.5195C1.56647 40.6998 2.69128 39.7312 3.81123 39.3357C4.34834 39.1459 4.81055 39.1133 5.20413 39.214C5.57926 39.3099 6.03268 39.5618 6.51154 40.2022C6.90737 40.7316 7.19269 41.6493 7.2698 43.0017C7.34507 44.3219 7.21299 45.8835 6.94209 47.5325C6.55581 49.8839 5.90496 52.3093 5.26923 54.2868ZM32.6734 71.8524C29.0587 71.5225 25.6009 70.6479 22.3822 69.3112C22.5429 67.1099 23.0361 64.3393 24.0361 62.1035C24.6227 60.7922 25.3392 59.7655 26.1694 59.1181C26.9593 58.5023 27.9006 58.187 29.1161 58.3496C30.2832 58.5056 31.0974 59.078 31.7065 59.9743C32.3477 60.9178 32.7707 62.2447 32.9861 63.8355C33.3405 66.4533 33.0924 69.4698 32.6734 71.8524ZM27.0618 23.8676C23.6822 27.7606 20.775 33.6996 24.0389 41.043C26.1111 45.7054 30.7729 48.9876 34.689 50.5151C36.7056 51.3016 38.7833 51.771 40.7281 52.0302C42.2999 52.2396 43.1317 50.3609 42.0919 49.1603C39.1062 45.7132 35.8095 41.3488 33.7811 37.7084C31.3878 33.4129 30.3872 28.7359 29.9677 24.9655C29.8014 23.4714 28.0461 22.7338 27.0618 23.8676ZM31.2865 18.1663C32.0252 18.58 32.5205 19.374 32.5383 20.291C32.6109 24.04 33.1067 30.6124 36.2801 36.3078C38.9664 41.1291 44.1312 47.456 47.4615 50.7339C48.235 51.4953 48.3903 52.563 48.1172 53.4217C47.8374 54.3014 47.0418 55.125 45.8502 55.1604C42.6517 55.2553 38.064 54.9121 33.6514 53.191C29.2132 51.4599 23.8746 47.7251 21.4243 42.212C16.3072 30.6992 23.9021 21.9819 28.7371 18.347C29.5383 17.7446 30.525 17.7398 31.2865 18.1663ZM68.3088 24.8058C69.6153 28.4485 69.919 32.3757 69.919 36.4698C69.919 42.2334 68.508 47.6665 66.0134 52.4404C65.65 49.8769 63.1926 48.2999 60.4737 46.555C59.5732 45.9771 58.6441 45.3809 57.7528 44.7243C56.6631 43.9214 55.577 43.1932 54.5387 42.4971C51.6313 40.5477 49.099 38.8498 47.9125 36.4698C45.8931 32.4189 44.692 26.6002 52.2065 28.2152C58.218 29.5073 65.5822 26.4806 68.3088 24.8058Z" fill="white"/>
</svg>
